<?xml version="1.0" encoding="utf-8"?>
<!-- Generator: Adobe Illustrator 16.0.0, SVG Export Plug-In . SVG Version: 6.00 Build 0)  -->
<!DOCTYPE svg PUBLIC "-//W3C//DTD SVG 1.1//EN" "http://www.w3.org/Graphics/SVG/1.1/DTD/svg11.dtd">
<svg version="1.1" id="Capa_1" xmlns="http://www.w3.org/2000/svg" xmlns:xlink="http://www.w3.org/1999/xlink" x="0px" y="0px"
	 width="596.641px" height="138px" viewBox="0 0 596.641 138" enable-background="new 0 0 596.641 138" xml:space="preserve">
<path fill="#FFFFFF" d="M14.924,43.138L4.397,58.256l53.7,71.774c0,0,6.517,2.635,13.833,0.067
	c7.323-2.567,53.868-71.81,53.868-71.81l-10.662-15.25l-50.522-15.15L14.924,43.138z"/>
<g>
	<g>
		<defs>
			<path id="SVGID_1_" d="M4.412,58.169c-1.542,3.334-2.43,6.6-2.412,9.956c1.147,18.893,37.098,52.28,56.109,61.886
				c-2.369-25.17-3.296-50.352-2.792-75.524C38.352,54.83,21.384,56.056,4.412,58.169 M72.034,130.012
				c19.01-9.609,54.951-42.992,56.094-61.886c0.021-3.357-0.859-6.622-2.408-9.957c-16.969-2.113-33.934-3.339-50.898-3.681
				C75.329,79.66,74.399,104.841,72.034,130.012 M14.938,43.084c33.419-9.227,66.837-9.227,100.26,0
				C99.266,26.192,80.309,5.187,65.172,5.187h-0.107c-0.032,0-0.067,0-0.103,0C49.83,5.184,30.87,26.185,14.938,43.084"/>
		</defs>
		<clipPath id="SVGID_2_">
			<use xlink:href="#SVGID_1_"  overflow="visible"/>
		</clipPath>
		<g clip-path="url(#SVGID_2_)">
			<defs>
				<filter id="Adobe_OpacityMaskFilter" filterUnits="userSpaceOnUse" x="-15.935" y="-13.007" width="162.004" height="161.116">
					<feColorMatrix  type="matrix" values="1 0 0 0 0  0 1 0 0 0  0 0 1 0 0  0 0 0 1 0"/>
				</filter>
			</defs>
			<mask maskUnits="userSpaceOnUse" x="-15.935" y="-13.007" width="162.004" height="161.116" id="SVGID_3_">
				<g filter="url(#Adobe_OpacityMaskFilter)">
					<g>
						<defs>
							<path id="SVGID_4_" d="M4.412,58.169c-1.542,3.334-2.43,6.6-2.412,9.956c1.147,18.893,37.098,52.28,56.109,61.886
								c-2.369-25.17-3.296-50.352-2.792-75.524C38.352,54.83,21.384,56.056,4.412,58.169 M72.034,130.012
								c19.01-9.609,54.951-42.992,56.094-61.886c0.021-3.357-0.859-6.622-2.408-9.957c-16.969-2.113-33.934-3.339-50.898-3.681
								C75.329,79.66,74.399,104.841,72.034,130.012 M14.938,43.084c33.419-9.227,66.837-9.227,100.26,0
								C99.266,26.192,80.309,5.187,65.172,5.187h-0.107c-0.032,0-0.067,0-0.103,0C49.83,5.184,30.87,26.185,14.938,43.084"/>
						</defs>
						<clipPath id="SVGID_5_">
							<use xlink:href="#SVGID_4_"  overflow="visible"/>
						</clipPath>
						<rect x="-15.935" y="-13.007" clip-path="url(#SVGID_5_)" width="162" height="161.108"/>
					</g>
					<g enable-background="new    ">
						<g>
							<g>
								<defs>
									<path id="SVGID_6_" d="M4.412,58.169c-1.542,3.334-2.43,6.6-2.412,9.956c1.147,18.893,37.098,52.28,56.109,61.886
										c-2.369-25.17-3.296-50.352-2.792-75.524C38.352,54.83,21.384,56.056,4.412,58.169 M72.034,130.012
										c19.01-9.609,54.951-42.992,56.094-61.886c0.021-3.357-0.859-6.622-2.408-9.957c-16.969-2.113-33.934-3.339-50.898-3.681
										C75.329,79.66,74.399,104.841,72.034,130.012 M14.938,43.084c33.419-9.227,66.837-9.227,100.26,0
										C99.266,26.192,80.309,5.187,65.172,5.187h-0.107c-0.032,0-0.067,0-0.103,0C49.83,5.184,30.87,26.185,14.938,43.084"/>
								</defs>
								<clipPath id="SVGID_7_">
									<use xlink:href="#SVGID_6_"  overflow="visible"/>
								</clipPath>
							</g>
							<g>
								<defs>
									<path id="SVGID_8_" d="M4.412,58.169c-1.542,3.334-2.43,6.6-2.412,9.956c1.147,18.893,37.098,52.28,56.109,61.886
										c-2.369-25.17-3.296-50.352-2.792-75.524C38.352,54.83,21.384,56.056,4.412,58.169 M72.034,130.012
										c19.01-9.609,54.951-42.992,56.094-61.886c0.021-3.357-0.859-6.622-2.408-9.957c-16.969-2.113-33.934-3.339-50.898-3.681
										C75.329,79.66,74.399,104.841,72.034,130.012 M14.938,43.084c33.419-9.227,66.837-9.227,100.26,0
										C99.266,26.192,80.309,5.187,65.172,5.187h-0.107c-0.032,0-0.067,0-0.103,0C49.83,5.184,30.87,26.185,14.938,43.084"/>
								</defs>
								<defs>
									
										<rect id="SVGID_9_" x="-6.408" y="-3.391" transform="matrix(-0.9894 0.1449 -0.1449 -0.9894 139.2227 124.9617)" width="142.937" height="141.885"/>
								</defs>
								<clipPath id="SVGID_10_">
									<use xlink:href="#SVGID_8_"  overflow="visible"/>
								</clipPath>
								<clipPath id="SVGID_12_" clip-path="url(#SVGID_10_)">
									<use xlink:href="#SVGID_9_"  overflow="visible"/>
								</clipPath>
								
									<radialGradient id="SVGID_13_" cx="-294.6147" cy="-1082.6807" r="3.637" gradientTransform="matrix(-12.9281 1.8939 3.7879 25.8563 356.8191 28612.3965)" gradientUnits="userSpaceOnUse">
									<stop  offset="0" style="stop-color:#B3B4B6"/>
									<stop  offset="0.0844" style="stop-color:#BFC0C2"/>
									<stop  offset="0.2089" style="stop-color:#CBCCCD"/>
									<stop  offset="0.319" style="stop-color:#CFD1D2"/>
									<stop  offset="0.7178" style="stop-color:#F1F2F3"/>
									<stop  offset="1" style="stop-color:#F1F2F3"/>
								</radialGradient>
								<polygon clip-path="url(#SVGID_12_)" fill="url(#SVGID_13_)" points="142.66,-36.236 -39.043,-9.619 -12.532,171.339 
									169.171,144.723 								"/>
							</g>
						</g>
					</g>
				</g>
			</mask>
			<g mask="url(#SVGID_3_)">
				<g>
					<defs>
						<rect id="SVGID_14_" x="-15.935" y="-12.992" width="162.004" height="161.102"/>
					</defs>
					<clipPath id="SVGID_15_">
						<use xlink:href="#SVGID_14_"  overflow="visible"/>
					</clipPath>
					<polygon clip-path="url(#SVGID_15_)" fill="#FFFFFF" points="146.066,127.385 4.632,148.107 -15.935,7.716 125.5,-13.007 					
						"/>
				</g>
			</g>
		</g>
		<g clip-path="url(#SVGID_2_)">
			<g>
				<defs>
					<path id="SVGID_16_" d="M4.412,58.169c-1.542,3.334-2.43,6.6-2.412,9.956c1.147,18.893,37.098,52.28,56.109,61.886
						c-2.369-25.17-3.296-50.352-2.792-75.524C38.352,54.83,21.384,56.056,4.412,58.169 M72.034,130.012
						c19.01-9.609,54.951-42.992,56.094-61.886c0.021-3.357-0.859-6.622-2.408-9.957c-16.969-2.113-33.934-3.339-50.898-3.681
						C75.329,79.66,74.399,104.841,72.034,130.012 M14.938,43.084c33.419-9.227,66.837-9.227,100.26,0
						C99.266,26.192,80.309,5.187,65.172,5.187h-0.107c-0.032,0-0.067,0-0.103,0C49.83,5.184,30.87,26.185,14.938,43.084"/>
				</defs>
				<clipPath id="SVGID_17_">
					<use xlink:href="#SVGID_16_"  overflow="visible"/>
				</clipPath>
				<g clip-path="url(#SVGID_17_)">
					<g>
						<defs>
							
								<filter id="Adobe_OpacityMaskFilter_1_" filterUnits="userSpaceOnUse" x="-39.043" y="-36.242" width="208.218" height="207.583">
								<feColorMatrix  type="matrix" values="1 0 0 0 0  0 1 0 0 0  0 0 1 0 0  0 0 0 1 0"/>
							</filter>
						</defs>
						<mask maskUnits="userSpaceOnUse" x="-39.043" y="-36.242" width="208.218" height="207.583" id="SVGID_11_">
							<g filter="url(#Adobe_OpacityMaskFilter_1_)">
								<g>
									<defs>
										<path id="SVGID_18_" d="M4.412,58.169c-1.542,3.334-2.43,6.6-2.412,9.956c1.147,18.893,37.098,52.28,56.109,61.886
											c-2.369-25.17-3.296-50.352-2.792-75.524C38.352,54.83,21.384,56.056,4.412,58.169 M72.034,130.012
											c19.01-9.609,54.951-42.992,56.094-61.886c0.021-3.357-0.859-6.622-2.408-9.957c-16.969-2.113-33.934-3.339-50.898-3.681
											C75.329,79.66,74.399,104.841,72.034,130.012 M14.938,43.084c33.419-9.227,66.837-9.227,100.26,0
											C99.266,26.192,80.309,5.187,65.172,5.187h-0.107c-0.032,0-0.067,0-0.103,0C49.83,5.184,30.87,26.185,14.938,43.084"/>
									</defs>
									<clipPath id="SVGID_19_">
										<use xlink:href="#SVGID_18_"  overflow="visible"/>
									</clipPath>
									<rect x="-15.935" y="-13.007" clip-path="url(#SVGID_19_)" width="162" height="161.108"/>
								</g>
								<g enable-background="new    ">
									<g>
										<g>
											<defs>
												<path id="SVGID_20_" d="M4.412,58.169c-1.542,3.334-2.43,6.6-2.412,9.956c1.147,18.893,37.098,52.28,56.109,61.886
													c-2.369-25.17-3.296-50.352-2.792-75.524C38.352,54.83,21.384,56.056,4.412,58.169 M72.034,130.012
													c19.01-9.609,54.951-42.992,56.094-61.886c0.021-3.357-0.859-6.622-2.408-9.957
													c-16.969-2.113-33.934-3.339-50.898-3.681C75.329,79.66,74.399,104.841,72.034,130.012 M14.938,43.084
													c33.419-9.227,66.837-9.227,100.26,0C99.266,26.192,80.309,5.187,65.172,5.187h-0.107c-0.032,0-0.067,0-0.103,0
													C49.83,5.184,30.87,26.185,14.938,43.084"/>
											</defs>
											<clipPath id="SVGID_21_">
												<use xlink:href="#SVGID_20_"  overflow="visible"/>
											</clipPath>
										</g>
										<g>
											<defs>
												<path id="SVGID_22_" d="M4.412,58.169c-1.542,3.334-2.43,6.6-2.412,9.956c1.147,18.893,37.098,52.28,56.109,61.886
													c-2.369-25.17-3.296-50.352-2.792-75.524C38.352,54.83,21.384,56.056,4.412,58.169 M72.034,130.012
													c19.01-9.609,54.951-42.992,56.094-61.886c0.021-3.357-0.859-6.622-2.408-9.957
													c-16.969-2.113-33.934-3.339-50.898-3.681C75.329,79.66,74.399,104.841,72.034,130.012 M14.938,43.084
													c33.419-9.227,66.837-9.227,100.26,0C99.266,26.192,80.309,5.187,65.172,5.187h-0.107c-0.032,0-0.067,0-0.103,0
													C49.83,5.184,30.87,26.185,14.938,43.084"/>
											</defs>
											<defs>
												
													<rect id="SVGID_23_" x="-6.408" y="-3.391" transform="matrix(-0.9894 0.1449 -0.1449 -0.9894 139.2227 124.9617)" width="142.937" height="141.885"/>
											</defs>
											<clipPath id="SVGID_24_">
												<use xlink:href="#SVGID_22_"  overflow="visible"/>
											</clipPath>
											<clipPath id="SVGID_25_" clip-path="url(#SVGID_24_)">
												<use xlink:href="#SVGID_23_"  overflow="visible"/>
											</clipPath>
											
												<radialGradient id="SVGID_26_" cx="-294.6147" cy="-1082.6807" r="3.637" gradientTransform="matrix(-12.9281 1.8939 3.7879 25.8563 356.8191 28612.3965)" gradientUnits="userSpaceOnUse">
												<stop  offset="0" style="stop-color:#B3B4B6"/>
												<stop  offset="0.0844" style="stop-color:#BFC0C2"/>
												<stop  offset="0.2089" style="stop-color:#CBCCCD"/>
												<stop  offset="0.319" style="stop-color:#CFD1D2"/>
												<stop  offset="0.7178" style="stop-color:#F1F2F3"/>
												<stop  offset="1" style="stop-color:#F1F2F3"/>
											</radialGradient>
											<polygon clip-path="url(#SVGID_25_)" fill="url(#SVGID_26_)" points="142.66,-36.236 -39.043,-9.619 -12.532,171.339 
												169.171,144.723 											"/>
										</g>
									</g>
								</g>
							</g>
						</mask>
						<g mask="url(#SVGID_11_)">
							<defs>
								<rect id="SVGID_27_" x="-15.935" y="-12.992" width="162.004" height="161.102"/>
							</defs>
							<clipPath id="SVGID_28_">
								<use xlink:href="#SVGID_27_"  overflow="visible"/>
							</clipPath>
							<g clip-path="url(#SVGID_28_)">
								<g>
									<defs>
										
											<rect id="SVGID_29_" x="-6.404" y="-3.4" transform="matrix(-0.9894 0.145 -0.145 -0.9894 139.2422 124.9379)" width="142.943" height="141.886"/>
									</defs>
									<clipPath id="SVGID_30_">
										<use xlink:href="#SVGID_29_"  overflow="visible"/>
									</clipPath>
									
										<radialGradient id="SVGID_31_" cx="-294.6157" cy="-1082.6743" r="3.6377" gradientTransform="matrix(-12.9282 1.8939 3.7879 25.8563 356.8184 28612.4121)" gradientUnits="userSpaceOnUse">
										<stop  offset="0" style="stop-color:#01ACDF"/>
										<stop  offset="0.016" style="stop-color:#0EA8DC"/>
										<stop  offset="0.096" style="stop-color:#1F97CE"/>
										<stop  offset="0.1745" style="stop-color:#278AC4"/>
										<stop  offset="0.2499" style="stop-color:#2A83BE"/>
										<stop  offset="0.319" style="stop-color:#2B80BC"/>
										<stop  offset="0.7178" style="stop-color:#2567A7"/>
										<stop  offset="1" style="stop-color:#124F82"/>
									</radialGradient>
									<polygon clip-path="url(#SVGID_30_)" fill="url(#SVGID_31_)" points="142.664,-36.242 -39.043,-9.622 -12.532,171.341 
										169.175,144.723 									"/>
								</g>
							</g>
						</g>
					</g>
				</g>
			</g>
		</g>
	</g>
</g>
<polygon fill="#FFFFFF" points="167.456,78.009 167.456,23.182 147.731,23.182 147.731,10.539 201.546,10.539 201.546,23.182 
	181.921,23.182 181.921,78.009 "/>
<path fill="#FFFFFF" d="M194.084,53.529c0-13.857,9.717-25.591,25.801-25.591c16.18,0,25.893,11.734,25.893,25.591
	c0,13.859-9.713,25.694-25.893,25.694C203.801,79.223,194.084,67.388,194.084,53.529 M232.422,53.529
	c0-7.586-4.45-14.16-12.537-14.16c-7.994,0-12.444,6.574-12.444,14.16c0,7.689,4.45,14.259,12.444,14.259
	C227.972,67.788,232.422,61.218,232.422,53.529"/>
<polygon fill="#FFFFFF" points="293.513,78.009 283.196,44.727 272.879,78.009 259.122,78.009 244.251,29.152 257.604,29.152 
	266.707,62.027 277.429,29.152 288.86,29.152 299.582,62.027 308.685,29.152 322.141,29.152 307.271,78.009 "/>
<path fill="#FFFFFF" d="M358.972,78.009V48.472c0-6.778-3.541-9.106-9-9.106c-5.057,0-8.902,2.834-11.129,5.667V78.01h-12.846
	V29.152h12.846v6.269c3.135-3.64,9.205-7.483,17.097-7.483c10.824,0,15.981,6.069,15.981,15.578v34.493H358.972z"/>
<path fill="#FFFFFF" d="M376.395,71.634l5.563-9.305c3.644,3.441,10.824,6.78,16.894,6.78c5.565,0,8.193-2.124,8.193-5.161
	c0-7.99-28.93-1.417-28.93-20.639c0-8.189,7.082-15.372,20.029-15.372c8.193,0,14.768,2.834,19.625,6.677l-5.159,9.102
	c-2.935-3.036-8.495-5.661-14.466-5.661c-4.651,0-7.688,2.021-7.688,4.752c0,7.183,29.029,1.113,29.029,20.84
	c0,9.001-7.683,15.574-21.241,15.574C389.749,79.221,381.552,76.393,376.395,71.634"/>
<path fill="#FFFFFF" d="M421.743,53.529c0-14.16,10.519-25.593,25.29-25.593c14.666,0,24.479,10.923,24.479,26.808v3.032h-36.313
	c0.905,5.971,5.764,10.926,14.06,10.926c4.146,0,9.811-1.721,12.948-4.754l5.765,8.495c-4.854,4.451-12.547,6.779-20.129,6.779
	C432.973,79.223,421.743,69.208,421.743,53.529 M447.033,38.46c-7.994,0-11.433,5.56-11.938,10.419h24.074
	C458.763,44.224,455.531,38.46,447.033,38.46"/>
<path fill="#FFFFFF" d="M508.721,78.009V48.472c0-6.778-3.545-9.106-9.007-9.106c-5.05,0-8.896,2.834-11.123,5.667V78.01h-12.845
	V29.152h12.845v6.269c3.138-3.64,9.209-7.483,17.098-7.483c10.82,0,15.979,6.069,15.979,15.578v34.493H508.721z"/>
<path fill="#FFFFFF" d="M562.258,78.009v-6.272c-3.847,4.858-9.105,7.483-15.072,7.483c-12.24,0-21.648-9.305-21.648-25.691
	c0-15.882,9.205-25.591,21.648-25.591c5.765,0,11.227,2.426,15.072,7.483V10.536h12.944v67.473H562.258z M562.258,62.229V44.931
	c-2.127-3.237-6.779-5.565-11.026-5.565c-7.388,0-12.443,5.764-12.443,14.163c0,8.498,5.057,14.263,12.443,14.263
	C555.479,67.792,560.131,65.467,562.258,62.229"/>
<path fill="#FFFFFF" d="M166.153,120.73l1.981-2.535c1.708,1.979,4.564,3.804,8.286,3.804c4.72,0,6.229-2.537,6.229-4.599
	c0-6.822-15.662-3.012-15.662-12.447c0-4.365,3.885-7.376,9.117-7.376c4.002,0,7.138,1.385,9.361,3.729l-1.981,2.412
	c-1.985-2.218-4.762-3.166-7.657-3.166c-3.128,0-5.434,1.701-5.434,4.2c0,5.947,15.666,2.537,15.666,12.41
	c0,3.81-2.614,7.772-9.756,7.772C171.743,124.936,168.333,123.189,166.153,120.73"/>
<polygon fill="#FFFFFF" points="194.244,124.461 194.244,98.014 211.571,98.014 211.571,100.947 197.533,100.947 197.533,109.471 
	211.294,109.471 211.294,112.404 197.533,112.404 197.533,121.525 211.571,121.525 211.571,124.461 "/>
<path fill="#FFFFFF" d="M219.296,111.255c0-8.127,5.991-13.678,13.602-13.678c4.677,0,7.927,2.22,10.029,5.233l-2.734,1.545
	c-1.506-2.263-4.28-3.846-7.295-3.846c-5.789,0-10.189,4.404-10.189,10.745c0,6.267,4.4,10.747,10.189,10.747
	c3.015,0,5.789-1.625,7.295-3.844l2.777,1.502c-2.223,3.054-5.395,5.277-10.072,5.277
	C225.287,124.938,219.296,119.382,219.296,111.255"/>
<path fill="#FFFFFF" d="M250.857,114.189V98.012h3.331v16.102c0,4.837,2.578,7.887,7.454,7.887s7.497-3.05,7.497-7.887V98.012h3.324
	v16.137c0,6.582-3.647,10.789-10.821,10.789C254.508,124.938,250.857,120.693,250.857,114.189"/>
<path fill="#FFFFFF" d="M298.048,124.461l-6.702-10.507h-5.309v10.507h-3.292V98.014h10.625c4.837,0,8.325,3.094,8.325,7.969
	c0,4.756-3.285,7.375-6.895,7.692l7.135,10.786H298.048z M298.289,105.982c0-3.01-2.184-5.035-5.313-5.035h-6.939v10.111h6.939
	C296.105,111.061,298.289,108.954,298.289,105.982"/>
<rect x="310.837" y="98.012" fill="#FFFFFF" width="3.288" height="26.445"/>
<polygon fill="#FFFFFF" points="330.415,124.461 330.415,100.947 322.052,100.947 322.052,98.014 342.117,98.014 342.117,100.947 
	333.708,100.947 333.708,124.461 "/>
<polygon fill="#FFFFFF" points="358.433,124.461 358.433,113.277 348.002,98.014 351.848,98.014 360.059,110.303 368.266,98.014 
	372.109,98.014 361.721,113.277 361.721,124.461 "/>
<path fill="#FFFFFF" d="M589.092,78.236c-3.551,0-6.438-2.885-6.438-6.432c0-3.588,2.888-6.438,6.438-6.438
	c3.583,0,6.437,2.852,6.437,6.438C595.527,75.352,592.675,78.236,589.092,78.236 M589.092,66.246c-3.064,0-5.558,2.429-5.558,5.559
	c0,3.036,2.492,5.553,5.558,5.553c3.064,0,5.555-2.517,5.555-5.553C594.646,68.675,592.156,66.246,589.092,66.246 M590.854,75.505
	l-1.914-2.916h-1.336v2.916h-0.973v-7.378h3.008c1.246,0,2.337,0.882,2.337,2.246c0,1.641-1.46,2.188-1.882,2.188l1.975,2.944
	H590.854z M589.639,68.978h-2.035v2.731h2.035c0.64,0,1.335-0.576,1.335-1.335C590.974,69.553,590.277,68.978,589.639,68.978"/>
</svg>
